<svg version="1.1" id="Layer_1" xmlns="http://www.w3.org/2000/svg" xmlns:xlink="http://www.w3.org/1999/xlink" x="0px" y="0px"
	 width="100%" viewBox="0 0 496 496" enable-background="new 0 0 496 496" xml:space="preserve">
<path fill="#000000" opacity="1.000000" stroke="none" 
	d="
M249.638260,155.951752 
	C251.542328,164.871201 249.908386,172.959167 246.097031,180.552887 
	C232.730942,207.183334 211.559052,223.501816 181.938797,228.304779 
	C178.778259,228.817261 177.381393,230.488602 176.472473,233.240784 
	C170.731613,250.623947 166.288788,268.325562 163.347916,286.395935 
	C162.500259,291.604431 161.809631,296.838531 161.046341,302.065582 
	C162.802048,302.339844 163.197937,301.167328 164.009445,300.700134 
	C166.692322,299.155548 169.483749,299.022888 172.018448,300.733734 
	C174.795074,302.607819 175.152710,305.763977 173.852844,308.354645 
	C168.930176,318.165588 164.072830,328.057312 158.342926,337.398590 
	C154.416107,343.800354 148.194397,342.595306 145.209808,335.531830 
	C141.768936,327.388428 139.156677,318.998016 137.431442,310.314392 
	C135.632584,301.259949 138.210999,298.357635 147.951324,299.946228 
	C151.411972,276.408997 156.029343,253.076996 163.617508,230.339951 
	C160.547012,228.464554 157.485687,228.774399 154.645966,228.144943 
	C125.581955,221.702423 104.467354,205.296021 92.190773,177.958847 
	C89.921600,172.905914 90.816399,169.541473 94.591393,167.731262 
	C98.241150,165.981094 101.738457,167.581299 104.004890,172.546432 
	C114.419556,195.362152 132.060074,209.185196 156.284180,214.928223 
	C157.091843,215.119705 157.877335,215.433182 158.693298,215.556763 
	C167.492950,216.889496 168.323395,216.375259 171.550308,208.166168 
	C178.477295,190.544312 187.023682,173.855103 200.011749,159.813385 
	C208.549652,150.582855 217.983093,142.793716 231.468918,142.685135 
	C240.762573,142.610291 246.203903,146.621933 249.638260,155.951752 
M196.054428,187.524460 
	C191.428940,196.060623 186.982010,204.675751 183.430130,214.193924 
	C197.407669,212.329086 212.339508,203.650116 223.778381,190.648926 
	C230.321152,183.212540 235.573944,174.938522 237.407822,164.942810 
	C238.641281,158.219696 234.185623,154.055664 227.841217,156.058640 
	C223.019043,157.581070 218.803223,160.168793 215.051926,163.597519 
	C207.615112,170.394821 201.472870,178.204849 196.054428,187.524460 
z"/>
<path fill="#000000" opacity="1.000000" stroke="none" 
	d="
M351.213379,289.319672 
	C337.649963,287.830322 328.546204,279.463898 325.844330,266.419617 
	C322.937103,252.384079 328.031464,238.219742 338.460297,232.142715 
	C347.647461,226.789261 360.798889,224.291687 374.542297,237.358505 
	C374.591187,236.359100 374.640656,235.571686 374.666504,234.783463 
	C374.845184,229.330276 378.488678,227.003372 383.492859,229.058304 
	C385.831940,230.018845 385.310028,232.020004 385.314453,233.734299 
	C385.357422,250.380096 385.242432,267.026947 385.399628,283.671356 
	C385.436249,287.548676 383.870941,288.564514 380.336182,288.395264 
	C377.163605,288.243347 374.074615,288.502869 374.659943,283.836151 
	C374.781982,282.863190 374.677673,281.861816 374.677673,279.484528 
	C368.062561,286.941956 360.537537,289.943695 351.213379,289.319672 
M363.363617,278.062012 
	C369.911133,274.863220 373.159851,269.312042 374.433411,262.404144 
	C376.864471,249.217712 366.204559,236.028793 354.138062,237.479218 
	C346.084045,238.447357 339.882172,242.437042 337.440491,250.460922 
	C334.836945,259.016632 335.416931,267.406708 341.967987,274.225098 
	C347.765625,280.259338 354.936707,281.118530 363.363617,278.062012 
z"/>
<path fill="#000000" opacity="1.000000" stroke="none" 
	d="
M257.392090,250.000381 
	C257.391418,262.932281 257.391418,275.364166 257.391418,287.697968 
	C247.900589,289.400879 247.244507,289.012878 246.346481,281.460571 
	C244.420242,281.376862 243.617432,283.108429 242.344727,284.003357 
	C233.246552,290.400726 223.432861,291.328400 213.520035,286.780487 
	C203.397583,282.136383 198.604980,273.369476 197.737885,262.527557 
	C197.369949,257.926880 197.379669,253.277191 198.638870,248.668610 
	C204.236954,228.180161 228.545685,221.040619 244.322525,235.334030 
	C244.807678,235.773560 245.309448,236.194717 245.760818,236.587311 
	C246.993179,236.175003 246.670380,235.214767 246.713898,234.466934 
	C247.008682,229.402008 251.401779,226.860992 255.846466,229.149277 
	C257.572937,230.038116 257.337860,231.586899 257.350525,233.030960 
	C257.398682,238.520462 257.383972,244.010544 257.392090,250.000381 
M235.426743,278.142365 
	C247.260971,271.514771 250.746750,255.835129 242.615448,245.038193 
	C238.532135,239.616241 232.721039,236.927704 226.062408,237.576080 
	C218.197006,238.341949 212.274231,242.564407 209.715881,250.300430 
	C206.864960,258.921204 207.806244,267.230835 214.077576,274.109741 
	C219.739502,280.320221 226.979156,281.056396 235.426743,278.142365 
z"/>
<path fill="#000000" opacity="1.000000" stroke="none" 
	d="
M278.674011,285.542053 
	C274.081390,282.594116 271.464539,278.706085 270.201324,273.801605 
	C269.670654,271.741302 270.206726,270.409912 272.347931,270.265106 
	C276.211731,270.003815 279.923492,269.026093 282.203217,274.284912 
	C284.965820,280.657623 297.784576,282.100891 302.927948,277.248962 
	C306.691467,273.698700 306.215912,268.894989 301.405853,266.662354 
	C297.362701,264.785675 292.942749,263.706818 288.663635,262.357147 
	C285.169067,261.254913 281.618286,260.278137 278.481842,258.326599 
	C269.207977,252.556290 268.274780,240.336533 276.522156,233.240952 
	C284.846283,226.079330 301.277618,226.226837 309.484283,233.546738 
	C311.244263,235.116501 312.921570,236.873337 313.585144,239.126724 
	C314.345215,241.707733 317.283081,244.722595 313.626740,247.015610 
	C310.572754,248.930862 305.517365,246.869858 303.712372,243.586533 
	C300.237213,237.265198 290.966888,235.222443 285.042084,239.472488 
	C280.882080,242.456604 281.020935,247.820526 285.417206,250.682724 
	C288.528809,252.708511 292.152313,253.496490 295.643707,254.590332 
	C298.658295,255.534790 301.703064,256.411957 304.648132,257.543640 
	C312.320068,260.491760 316.526337,266.139069 316.154907,272.751648 
	C315.737701,280.180054 310.540375,286.309662 302.716187,288.261841 
	C294.535980,290.302887 286.540619,289.945679 278.674011,285.542053 
z"/>
<path fill="#000000" opacity="1.000000" stroke="none" 
	d="
M359.763275,309.968811 
	C335.111542,320.209473 311.446014,319.141388 288.551605,305.916290 
	C283.757050,303.146667 279.288239,299.871399 275.954498,294.836761 
	C311.556793,321.664398 346.405640,321.650726 380.955597,292.969299 
	C375.840942,301.168060 367.981018,305.498810 359.763275,309.968811 
z"/>
<path fill="#000000" opacity="1.000000" stroke="none" 
	d="
M410.325745,285.065796 
	C408.898254,286.993835 407.706146,288.685883 404.924408,287.387970 
	C404.853027,284.044525 407.072357,281.087189 406.660278,277.268738 
	C411.160492,278.640289 411.520966,281.355347 410.325745,285.065796 
z"/>
</svg>