<?xml version="1.0" encoding="UTF-8"?><svg xmlns="http://www.w3.org/2000/svg" version="1.1" width="1000" height="1000">
<path d="M0,0 L13,0 L21,4 L26,12 L27,22 L24,34 L17,48 L8,59 L0,67 L-10,74 L-24,81 L-37,85 L-46,87 L-54,114 L-60,142 L-62,159 L-57,156 L-51,158 L-50,159 L-50,167 L-62,189 L-67,197 L-69,198 L-76,198 L-82,186 L-87,168 L-87,159 L-83,156 L-77,157 L-75,148 L-70,120 L-63,94 L-60,86 L-72,85 L-90,79 L-103,71 L-114,62 L-123,52 L-132,36 L-133,34 L-133,28 L-129,24 L-124,24 L-120,28 L-114,40 L-107,49 L-100,56 L-86,65 L-73,70 L-65,72 L-55,73 L-54,68 L-45,47 L-37,33 L-28,21 L-19,11 L-11,5 L-3,1 Z M5,12 L-7,18 L-19,30 L-29,45 L-40,68 L-41,72 L-32,70 L-16,62 L-7,55 L2,46 L9,35 L13,26 L14,18 L11,13 Z " fill="#FA7522" transform="translate(223,142)"/>
<path d="M0,0 L11,0 L20,3 L26,8 L27,1 L38,1 L38,60 L27,60 L26,53 L20,58 L13,61 L-2,61 L-12,56 L-19,48 L-22,40 L-23,27 L-20,15 L-13,6 L-4,1 Z M7,9 L-1,11 L-9,18 L-12,27 L-12,34 L-9,43 L-5,48 L0,51 L4,52 L11,52 L18,49 L23,44 L26,39 L27,35 L27,26 L24,18 L16,11 Z " fill="#F97524" transform="translate(219,227)"/>
<path d="M0,0 L11,0 L21,4 L26,9 L27,1 L37,1 L37,60 L27,60 L26,53 L18,59 L13,61 L-2,61 L-11,57 L-18,50 L-22,41 L-23,36 L-23,25 L-20,15 L-14,7 L-7,2 Z M7,9 L-1,11 L-7,15 L-11,22 L-12,26 L-12,35 L-8,45 L0,51 L4,52 L11,52 L19,48 L25,41 L27,33 L26,23 L21,15 L16,11 Z " fill="#FA7522" transform="translate(347,227)"/>
<path d="M0,0 L12,0 L20,3 L25,7 L28,13 L28,19 L18,19 L15,13 L8,10 L-1,11 L-4,14 L-4,20 L2,24 L20,30 L26,34 L29,40 L29,48 L26,54 L20,59 L15,61 L-1,61 L-10,57 L-16,50 L-17,42 L-6,42 L-3,48 L2,51 L12,51 L16,49 L17,47 L17,41 L9,37 L-6,32 L-12,28 L-16,22 L-16,13 L-13,7 L-8,3 Z " fill="#F87624" transform="translate(286,227)"/>
<path d="M0,0 L2,2 L-9,12 L-25,21 L-44,25 L-59,25 L-71,23 L-84,18 L-95,12 L-105,4 L-104,2 L-100,4 L-89,12 L-76,18 L-63,21 L-52,22 L-36,20 L-21,15 L-11,9 Z " fill="#E28444" transform="translate(379,291)"/>
<path d="M0,0 L1,0 L1,32 L-7,32 L-7,19 L-10,23 L-14,24 L-12,19 L-10,19 L-11,15 L-9,14 L-9,12 L-6,12 L-5,8 L-3,6 L-1,1 Z " fill="#FC741F" transform="translate(254,255)"/>
<path d="M0,0 L11,1 L15,3 L15,5 L19,5 L21,8 L20,12 L17,12 L16,10 L4,9 L-4,9 L-6,6 L-5,1 Z " fill="#FC731F" transform="translate(222,228)"/>
<path d="M0,0 L7,0 L10,3 L10,11 L7,14 L0,14 L-3,11 L-4,6 L-1,1 Z " fill="#FA7522" transform="translate(400,274)"/>
<path d="M0,0 L11,0 L11,59 L10,59 L10,1 L1,1 L1,12 L2,17 L1,18 L0,25 L-2,21 L-6,15 L-11,10 L-7,10 L-5,12 L-5,9 L-5,5 L-1,7 Z " fill="#E87F3D" transform="translate(246,228)"/>
<path d="M0,0 L7,1 L9,4 L5,4 L4,8 L-11,8 L-10,6 L-14,4 L-13,2 L-4,1 Z " fill="#FC741E" transform="translate(298,279)"/>
<path d="M0,0 L10,5 L23,9 L23,10 L17,10 L15,10 L11,12 L15,14 L15,16 L19,16 L19,18 L7,15 L-5,10 L-6,8 L-2,8 L-2,10 L2,10 L2,12 L8,10 L9,6 L1,5 Z " fill="#F17A32" transform="translate(281,247)"/>
<path d="M0,0 L10,0 L10,46 L9,46 L9,1 L1,1 L2,9 L0,11 L-3,10 L-4,8 L-10,6 L-10,2 L-5,4 L-1,8 Z M-4,10 Z " fill="#EE7B32" transform="translate(374,228)"/>
<path d="M0,0 L17,0 L21,4 L23,5 L21,11 L28,10 L29,8 L26,8 L27,2 L30,6 L30,12 L20,12 L17,6 L10,3 L1,3 Z M16,1 Z " fill="#F77422" transform="translate(284,234)"/>
<path d="M0,0 L5,0 L7,3 L15,5 L14,9 L11,11 L8,11 L8,9 L2,8 L-1,5 Z " fill="#FC731E" transform="translate(275,248)"/>
<path d="M0,0 L3,0 L3,2 L9,3 L9,5 L12,6 L11,12 L14,12 L13,15 L6,15 L6,10 L5,9 L2,5 L-1,3 Z M1,5 Z " fill="#FC741F" transform="translate(299,230)"/>
<path d="M0,0 L9,2 L10,5 L15,6 L14,9 L13,7 L8,10 L5,10 L5,8 L-1,7 L-4,4 Z " fill="#FC741E" transform="translate(295,255)"/>
<path d="M0,0 L11,0 L17,2 L14,3 L9,4 L9,7 L12,8 L12,10 L2,10 L0,7 L3,4 L4,2 L-4,2 Z " fill="#EE7B31" transform="translate(347,227)"/>
<path d="M0,0 L1,2 L5,2 L7,5 L6,9 L3,9 L2,7 L-15,6 L-16,4 L-3,3 Z " fill="#F67627" transform="translate(236,231)"/>
<path d="M0,0 L1,4 L-1,4 L-2,9 L-5,13 L-8,13 L-8,15 L-6,15 L-7,19 L-8,16 L-12,20 L-16,19 L-6,9 Z " fill="#EF7B33" transform="translate(230,179)"/>
<path d="M0,0 L2,3 L5,9 L5,11 L7,11 L10,17 L13,16 L16,27 L11,22 L5,14 L-1,3 Z " fill="#EA7D36" transform="translate(92,175)"/>
<path d="M0,0 L7,0 L7,1 L0,3 L0,8 L2,8 L2,11 L7,13 L7,14 L0,14 L-3,11 L-4,6 L-1,1 Z " fill="#EB7C35" transform="translate(400,274)"/>
<path d="M0,0 L5,0 L9,4 L11,11 L6,7 L5,7 L5,2 L0,4 L-1,8 L-4,9 L-3,2 Z " fill="#EC7B33" transform="translate(94,166)"/>
<path d="M0,0 L3,4 L-1,6 L-4,10 L-6,13 L-11,14 L-9,10 Z " fill="#F27D2A" transform="translate(204,153)"/>
<path d="M0,0 L2,0 L2,2 L4,3 L-3,10 L-9,19 L-10,15 L-8,15 L-8,11 L-5,11 L-6,6 L-2,6 L-2,3 L1,3 Z " fill="#F0792F" transform="translate(208,162)"/>
<path d="M0,0 L2,2 L3,16 L1,16 L-1,23 L-3,24 L-5,22 L-2,18 L0,10 Z " fill="#EA7D34" transform="translate(373,250)"/>
<path d="M0,0 L3,0 L3,2 L6,3 L7,6 L3,6 L3,9 L-2,9 L0,4 Z " fill="#FC731C" transform="translate(278,231)"/>
<path d="M0,0 L4,1 L4,10 L3,11 L3,16 L1,13 Z " fill="#F47E26" transform="translate(196,254)"/>
<path d="M0,0 L1,2 L-3,8 L-5,9 L-12,9 L-14,5 L-7,7 L-7,5 L-3,5 L-1,1 Z " fill="#ED7B34" transform="translate(159,331)"/>
<path d="M0,0 L4,0 L4,2 L9,0 L13,1 L12,4 L16,7 L10,6 L0,1 Z " fill="#EE7931" transform="translate(128,217)"/>
<path d="M0,0 L2,2 L-9,12 L-12,11 L-7,6 Z " fill="#E48B46" transform="translate(379,291)"/>
<path d="M0,0 L2,1 L1,3 L3,4 L1,7 L-3,8 L-5,17 L-6,17 L-6,9 L-3,3 Z " fill="#EB7A37" transform="translate(276,231)"/>
<path d="M0,0 L12,0 L20,3 L25,7 L24,9 L22,8 L22,6 L18,7 L18,5 L16,5 L15,3 L0,1 Z " fill="#E87F41" transform="translate(286,227)"/>
<path d="M0,0 L3,4 L3,10 L-7,10 L-9,4 L-6,4 L-6,9 L1,8 L2,6 L-1,6 Z " fill="#EE7B34" transform="translate(311,236)"/>
<path d="M0,0 L7,0 L8,3 L12,4 L26,5 L26,6 L10,6 L1,2 Z " fill="#EB7B36" transform="translate(275,282)"/>
<path d="M0,0 L11,0 L12,5 L10,5 L10,2 L2,2 L3,10 L1,8 Z " fill="#DF7E43" transform="translate(269,269)"/>
<path d="M0,0 L9,1 L9,4 L11,4 L11,6 L13,6 L13,13 L10,9 L6,4 L0,1 Z " fill="#E78437" transform="translate(360,237)"/>
<path d="M0,0 L1,4 L-2,16 L-5,23 L-6,23 L-6,17 L-5,17 L-3,10 L-2,9 Z " fill="#E87C3A" transform="translate(249,160)"/>
<path d="M0,0 L1,0 L2,5 L4,0 L6,4 L2,9 L-1,15 L-2,15 L-1,5 Z " fill="#F2792E" transform="translate(153,262)"/>
<path d="M0,0 L0,3 L-3,9 L-6,13 L-8,19 L-9,15 L-5,6 Z " fill="#E67F37" transform="translate(206,233)"/>
<path d="M0,0 L11,0 L20,3 L22,6 L18,6 L17,4 L0,1 Z " fill="#E68042" transform="translate(219,227)"/>
<path d="M0,0 L15,0 L15,1 L3,2 L2,6 L-1,5 L-1,3 L-4,2 Z " fill="#F3792F" transform="translate(282,228)"/>
<path d="M0,0 L1,3 L0,14 L-1,14 L-2,7 L-6,10 L-6,5 L-2,3 Z " fill="#F17B34" transform="translate(247,273)"/>
<path d="M0,0 L5,2 L15,3 L14,5 L5,5 L1,6 Z " fill="#EE7C32" transform="translate(283,276)"/>
<path d="M0,0 L2,0 L1,9 L-1,19 L-2,19 L-1,3 Z " fill="#ED7A3A" transform="translate(165,260)"/>
<path d="M0,0 L4,1 L0,4 L-3,4 L-2,17 L-3,17 L-4,12 L-4,3 Z " fill="#E67D3A" transform="translate(140,298)"/>
<path d="M0,0 L2,4 L-2,7 L-7,9 L-12,9 L-8,7 L-2,3 Z " fill="#EF7C2E" transform="translate(242,270)"/>
<path d="M0,0 L3,2 L3,4 L5,4 L5,6 L8,7 L6,8 L-1,4 L-3,1 Z " fill="#F07E30" transform="translate(336,279)"/>
<path d="M0,0 L4,0 L2,6 L-2,13 L-4,9 L-1,9 L-1,5 L1,5 Z " fill="#EA7B36" transform="translate(164,316)"/>
<path d="M0,0 L5,1 L4,4 L2,3 L2,7 L-1,7 L-2,2 Z " fill="#FC731C" transform="translate(401,275)"/>
<path d="M0,0 L10,3 L10,4 L4,4 L2,4 L0,4 Z M-4,4 L0,5 L-5,7 Z " fill="#F27F2B" transform="translate(294,253)"/>
<path d="M0,0 L1,0 L1,9 L0,10 L-1,19 L-2,19 L-2,8 Z " fill="#E77E38" transform="translate(326,244)"/>
<path d="M0,0 L14,0 L14,3 L1,3 Z " fill="#F07B2F" transform="translate(284,234)"/>
<path d="M0,0 L11,3 L11,4 L4,5 L0,4 L-1,1 Z " fill="#F37A31" transform="translate(139,209)"/>
<path d="M0,0 L4,1 L1,4 L0,9 L-2,8 L-3,5 L-5,4 L-2,2 L0,3 Z " fill="#EE7C35" transform="translate(281,237)"/>
<path d="M0,0 L4,2 L-1,6 L-5,7 L-4,3 L-1,1 Z " fill="#EF7937" transform="translate(307,280)"/>
<path d="M0,0 L4,2 L4,10 L2,11 L2,4 L-3,4 Z " fill="#EB7B38" transform="translate(169,299)"/>
<path d="M0,0 L2,4 L4,11 L-1,6 L-2,2 Z " fill="#EF782E" transform="translate(104,191)"/>
<path d="M0,0 L0,3 L-3,8 L-5,7 L-6,3 Z " fill="#F17A2F" transform="translate(242,183)"/>
<path d="M0,0 L3,4 L3,5 L-6,7 Z " fill="#EC7832" transform="translate(204,153)"/>
<path d="M0,0 L4,2 L-1,5 L-4,5 L-4,2 Z " fill="#EC7A30" transform="translate(364,282)"/>
<path d="M0,0 L2,4 L5,10 L4,13 L2,12 L0,7 Z " fill="#E97C3D" transform="translate(207,261)"/>
<path d="M0,0 L1,0 L1,7 L2,11 L-1,10 L-2,12 L-1,4 Z " fill="#EE7A35" transform="translate(156,250)"/>
<path d="M0,0 L5,2 L2,4 L-5,6 L-2,1 Z " fill="#ED7A33" transform="translate(197,219)"/>
<path d="M0,0 L4,2 L6,9 L1,5 L0,5 Z " fill="#F1782A" transform="translate(99,168)"/>
<path d="M0,0 L1,4 L0,9 L-4,10 L-2,4 Z " fill="#E47B3E" transform="translate(179,187)"/>
<path d="M0,0 L8,5 L5,6 L1,7 Z " fill="#EA7C38" transform="translate(339,272)"/>
<path d="M0,0 L10,5 L10,6 L1,5 Z " fill="#E67C37" transform="translate(281,247)"/>
<path d="M0,0 L4,5 L4,8 L1,6 L-1,6 Z " fill="#EE7733" transform="translate(105,177)"/>
<path d="M0,0 L6,0 L3,5 L0,5 Z " fill="#F07A30" transform="translate(162,215)"/>
<path d="M0,0 L1,0 L2,10 L-1,11 Z " fill="#EC792F" transform="translate(150,278)"/>
<path d="M0,0 L3,2 L3,10 L1,11 L0,7 L1,3 Z " fill="#E77F3B" transform="translate(407,275)"/>
<path d="M0,0 L5,2 L8,4 L7,6 L4,4 L0,4 Z " fill="#E97A33" transform="translate(304,257)"/>
<path d="M0,0 L3,1 L-5,5 L-7,4 L-4,1 Z " fill="#EA7937" transform="translate(226,153)"/>
<path d="M0,0 L2,2 L-4,7 L-4,3 Z " fill="#DB8F4E" transform="translate(379,291)"/>
<path d="M0,0 L1,2 L3,2 L3,9 L0,5 Z " fill="#EE7C33" transform="translate(370,241)"/>
<path d="M0,0 L4,1 L-1,8 L-2,4 L0,4 Z " fill="#E97B39" transform="translate(200,173)"/>
<path d="M0,0 Z " fill="#FFFFFF" transform="translate(3,492)"/>
<path d="M0,0 Z " fill="#FFFFFF" transform="translate(145,486)"/>
<path d="M0,0 Z " fill="#FFFFFF" transform="translate(244,483)"/>
<path d="M0,0 Z " fill="#FFFFFF" transform="translate(373,481)"/>
<path d="M0,0 Z " fill="#FFFFFF" transform="translate(379,473)"/>
<path d="M0,0 Z " fill="#FFFFFF" transform="translate(218,472)"/>
<path d="M0,0 Z " fill="#FFFFFF" transform="translate(284,469)"/>
<path d="M0,0 Z " fill="#FFFFFF" transform="translate(298,464)"/>
<path d="M0,0 Z " fill="#FFFFFF" transform="translate(224,460)"/>
<path d="M0,0 Z " fill="#FFFFFF" transform="translate(382,459)"/>
<path d="M0,0 Z " fill="#FFFFFF" transform="translate(100,449)"/>
<path d="M0,0 Z " fill="#FFFFFF" transform="translate(225,448)"/>
<path d="M0,0 Z " fill="#FFFFFF" transform="translate(113,433)"/>
<path d="M0,0 Z " fill="#FFFFFF" transform="translate(441,429)"/>
<path d="M0,0 Z " fill="#FFFFFF" transform="translate(195,422)"/>
<path d="M0,0 Z " fill="#FFFFFF" transform="translate(497,417)"/>
<path d="M0,0 Z " fill="#FFFFFF" transform="translate(416,409)"/>
<path d="M0,0 Z " fill="#FFFFFF" transform="translate(392,373)"/>
<path d="M0,0 Z " fill="#FFFFFF" transform="translate(63,372)"/>
<path d="M0,0 Z " fill="#FFFFFF" transform="translate(372,371)"/>
<path d="M0,0 Z " fill="#FFFFFF" transform="translate(196,367)"/>
<path d="M0,0 Z " fill="#FFFFFF" transform="translate(56,365)"/>
<path d="M0,0 Z " fill="#FFFFFF" transform="translate(98,353)"/>
<path d="M0,0 Z " fill="#FFFFFF" transform="translate(486,347)"/>
<path d="M0,0 Z " fill="#FFFFFF" transform="translate(471,343)"/>
<path d="M0,0 Z " fill="#FFFFFF" transform="translate(468,342)"/>
<path d="M0,0 Z " fill="#FFFFFF" transform="translate(285,331)"/>
<path d="M0,0 Z " fill="#FFFFFF" transform="translate(276,327)"/>
<path d="M0,0 Z " fill="#FFFFFF" transform="translate(247,327)"/>
<path d="M0,0 Z " fill="#FFFFFF" transform="translate(358,315)"/>
<path d="M0,0 Z " fill="#FFFFFF" transform="translate(307,306)"/>
<path d="M0,0 Z " fill="#FFFFFF" transform="translate(215,302)"/>
<path d="M0,0 Z " fill="#FFFFFF" transform="translate(335,297)"/>
<path d="M0,0 Z " fill="#FFFFFF" transform="translate(278,266)"/>
<path d="M0,0 Z " fill="#FFFFFF" transform="translate(405,262)"/>
<path d="M0,0 Z " fill="#FFFFFF" transform="translate(284,247)"/>
<path d="M0,0 Z " fill="#FFFFFF" transform="translate(356,243)"/>
<path d="M0,0 Z " fill="#FFFFFF" transform="translate(62,241)"/>
<path d="M0,0 Z " fill="#FFFFFF" transform="translate(112,230)"/>
<path d="M0,0 Z " fill="#FFFFFF" transform="translate(280,224)"/>
<path d="M0,0 Z " fill="#FFFFFF" transform="translate(333,220)"/>
<path d="M0,0 Z " fill="#FFFFFF" transform="translate(87,219)"/>
<path d="M0,0 Z " fill="#FFFFFF" transform="translate(234,207)"/>
<path d="M0,0 Z " fill="#FFFFFF" transform="translate(398,206)"/>
<path d="M0,0 Z " fill="#FFFFFF" transform="translate(452,205)"/>
<path d="M0,0 Z " fill="#FFFFFF" transform="translate(461,204)"/>
<path d="M0,0 Z " fill="#FFFFFF" transform="translate(463,203)"/>
<path d="M0,0 Z " fill="#FFFFFF" transform="translate(308,193)"/>
<path d="M0,0 Z " fill="#FFFFFF" transform="translate(355,184)"/>
<path d="M0,0 Z " fill="#FFFFFF" transform="translate(10,183)"/>
<path d="M0,0 Z " fill="#FFFFFF" transform="translate(321,181)"/>
<path d="M0,0 Z " fill="#FFFFFF" transform="translate(299,176)"/>
<path d="M0,0 Z " fill="#FFFFFF" transform="translate(474,161)"/>
<path d="M0,0 Z " fill="#FFFFFF" transform="translate(448,161)"/>
<path d="M0,0 Z " fill="#FFFFFF" transform="translate(153,160)"/>
<path d="M0,0 Z " fill="#FFFFFF" transform="translate(150,158)"/>
<path d="M0,0 Z " fill="#FFFFFF" transform="translate(494,154)"/>
<path d="M0,0 Z " fill="#FFFFFF" transform="translate(156,148)"/>
<path d="M0,0 Z " fill="#FFFFFF" transform="translate(218,142)"/>
<path d="M0,0 Z " fill="#FFFFFF" transform="translate(106,138)"/>
<path d="M0,0 Z " fill="#FFFFFF" transform="translate(232,135)"/>
<path d="M0,0 Z " fill="#FFFFFF" transform="translate(380,127)"/>
<path d="M0,0 Z " fill="#FFFFFF" transform="translate(89,104)"/>
<path d="M0,0 Z " fill="#FFFFFF" transform="translate(81,103)"/>
<path d="M0,0 Z " fill="#FFFFFF" transform="translate(476,102)"/>
<path d="M0,0 Z " fill="#FFFFFF" transform="translate(404,96)"/>
<path d="M0,0 Z " fill="#FFFFFF" transform="translate(170,95)"/>
<path d="M0,0 Z " fill="#FFFFFF" transform="translate(487,80)"/>
<path d="M0,0 Z " fill="#FFFFFF" transform="translate(367,80)"/>
<path d="M0,0 Z " fill="#FFFFFF" transform="translate(326,79)"/>
<path d="M0,0 Z " fill="#FFFFFF" transform="translate(75,79)"/>
<path d="M0,0 Z " fill="#FFFFFF" transform="translate(335,71)"/>
<path d="M0,0 Z " fill="#FFFFFF" transform="translate(486,63)"/>
<path d="M0,0 Z " fill="#FFFFFF" transform="translate(440,63)"/>
<path d="M0,0 Z " fill="#FFFFFF" transform="translate(80,61)"/>
<path d="M0,0 Z " fill="#FFFFFF" transform="translate(309,47)"/>
<path d="M0,0 Z " fill="#FFFFFF" transform="translate(242,41)"/>
<path d="M0,0 Z " fill="#FFFFFF" transform="translate(179,36)"/>
<path d="M0,0 Z " fill="#FFFFFF" transform="translate(183,29)"/>
<path d="M0,0 Z " fill="#FFFFFF" transform="translate(92,28)"/>
<path d="M0,0 Z " fill="#FFFFFF" transform="translate(54,20)"/>
</svg>